<?xml version="1.0" standalone="no"?>
<!DOCTYPE svg PUBLIC "-//W3C//DTD SVG 20010904//EN"
 "http://www.w3.org/TR/2001/REC-SVG-20010904/DTD/svg10.dtd">
<svg version="1.0" xmlns="http://www.w3.org/2000/svg"
 width="78.000000pt" height="78.000000pt" viewBox="0 0 78.000000 78.000000"
 preserveAspectRatio="xMidYMid meet">

<g transform="translate(0.000000,78.000000) scale(0.100000,-0.100000)"
fill="#000000" stroke="none">
<path d="M285 616 c-91 -43 -145 -126 -145 -226 0 -139 111 -250 250 -250 64
0 141 32 182 76 58 63 92 194 50 194 -11 0 -27 -9 -38 -21 -46 -50 -114 -63
-173 -31 -83 45 -94 161 -22 226 12 11 21 27 21 38 0 26 -62 24 -125 -6z m21
-62 c-29 -76 -17 -142 36 -200 56 -61 136 -79 211 -49 51 21 -17 -66 -76 -96
-54 -28 -149 -23 -195 10 -53 38 -85 87 -90 141 -7 78 5 116 52 165 43 45 74
59 62 29z"/>
</g>
</svg>
