<?xml version="1.0" standalone="no"?>
<!DOCTYPE svg PUBLIC "-//W3C//DTD SVG 20010904//EN"
 "http://www.w3.org/TR/2001/REC-SVG-20010904/DTD/svg10.dtd">
<svg version="1.0" xmlns="http://www.w3.org/2000/svg"
 width="100.000000pt" height="100.000000pt" viewBox="0 0 100.000000 100.000000"
 preserveAspectRatio="xMidYMid meet">

<g transform="translate(0.000000,100.000000) scale(0.100000,-0.100000)"
fill="#000000" stroke="none">
<path d="M474 807 c-3 -9 -4 -28 -2 -44 2 -22 8 -28 28 -28 23 0 25 4 25 40 0
34 -3 40 -23 43 -13 2 -24 -3 -28 -11z"/>
<path d="M270 726 c-16 -20 -8 -40 25 -62 24 -16 27 -16 43 -1 15 16 15 19 -5
44 -24 33 -45 39 -63 19z"/>
<path d="M671 714 c-25 -32 -26 -38 -6 -54 12 -10 20 -9 40 4 33 21 41 42 25
61 -18 22 -36 18 -59 -11z"/>
<path d="M435 646 c-101 -44 -125 -178 -46 -257 65 -65 157 -65 222 0 124 124
-15 327 -176 257z m131 -80 c25 -24 34 -43 34 -66 0 -23 -9 -41 -34 -66 -46
-46 -86 -46 -132 0 -46 46 -46 86 0 132 46 46 86 46 132 0z"/>
<path d="M184 516 c-12 -31 4 -47 43 -44 33 3 38 6 38 28 0 22 -5 25 -38 28
-26 2 -39 -1 -43 -12z"/>
<path d="M734 516 c-12 -31 4 -47 43 -44 33 3 38 6 38 28 0 22 -5 25 -38 28
-26 2 -39 -1 -43 -12z"/>
<path d="M283 326 c-23 -20 -26 -28 -17 -43 16 -26 44 -22 67 9 17 22 18 30 7
43 -17 20 -24 19 -57 -9z"/>
<path d="M660 335 c-11 -13 -10 -21 7 -43 23 -31 51 -35 67 -9 9 15 6 23 -17
43 -33 28 -40 29 -57 9z"/>
<path d="M474 257 c-3 -9 -4 -28 -2 -44 2 -22 8 -28 28 -28 23 0 25 4 25 40 0
34 -3 40 -23 43 -13 2 -24 -3 -28 -11z"/>
</g>
</svg>
