<svg version="1.1" id="Layer_1" xmlns="http://www.w3.org/2000/svg" xmlns:xlink="http://www.w3.org/1999/xlink" x="0px" y="0px"
	 width="100%" viewBox="0 0 100 100" enable-background="new 0 0 100 100" xml:space="preserve">
<path fill="#000000" opacity="1.000000" stroke="none" 
	d="
M64.000000,101.000000 
	C42.666672,101.000000 21.833342,101.000000 1.000008,101.000000 
	C1.000006,67.666679 1.000006,34.333351 1.000003,1.000022 
	C34.333317,1.000015 67.666634,1.000015 100.999969,1.000007 
	C100.999977,34.333309 100.999977,67.666618 100.999985,100.999969 
	C88.833336,101.000000 76.666664,101.000000 64.000000,101.000000 
M52.500000,93.000000 
	C63.985561,93.000000 75.473320,92.870186 86.955582,93.064743 
	C91.465355,93.141144 93.089355,91.455795 93.063866,86.952927 
	C92.928162,62.983807 92.928139,39.013103 93.063866,15.043983 
	C93.089378,10.538630 91.456345,8.910638 86.953232,8.936132 
	C62.984112,9.071838 39.013409,9.071859 15.044290,8.936137 
	C10.539182,8.910627 8.910636,10.543104 8.936133,15.046463 
	C9.071840,39.015583 9.071858,62.986286 8.936137,86.955406 
	C8.910629,91.460266 10.539467,93.135246 15.046808,93.064865 
	C27.195248,92.875168 39.348598,93.000000 52.500000,93.000000 
z"/>
<path fill="#FFFFFF" opacity="1.000000" stroke="none" 
	d="
M52.000000,93.000000 
	C39.348598,93.000000 27.195248,92.875168 15.046808,93.064865 
	C10.539467,93.135246 8.910629,91.460266 8.936137,86.955406 
	C9.071858,62.986286 9.071840,39.015583 8.936133,15.046463 
	C8.910636,10.543104 10.539182,8.910627 15.044290,8.936137 
	C39.013409,9.071859 62.984112,9.071838 86.953232,8.936132 
	C91.456345,8.910638 93.089378,10.538630 93.063866,15.043983 
	C92.928139,39.013103 92.928162,62.983807 93.063866,86.952927 
	C93.089355,91.455795 91.465355,93.141144 86.955582,93.064743 
	C75.473320,92.870186 63.985561,93.000000 52.000000,93.000000 
M59.041382,34.533390 
	C59.398323,33.105690 59.755264,31.677994 60.112209,30.250294 
	C59.479980,30.036123 58.847752,29.821955 58.215523,29.607784 
	C52.628822,43.573257 47.042122,57.538727 41.455421,71.504204 
	C42.217911,71.829269 42.980404,72.154335 43.742893,72.479401 
	C48.817780,60.096741 53.892670,47.714085 59.041382,34.533390 
M37.922104,59.535084 
	C34.294868,56.666412 30.667631,53.797741 26.759626,50.707016 
	C30.707409,48.197186 34.566498,45.743736 38.425587,43.290291 
	C38.032993,42.665279 37.640404,42.040268 37.247810,41.415257 
	C32.027401,44.404659 26.806993,47.394066 20.122070,51.222107 
	C26.836666,54.643150 32.058853,57.303822 37.922104,59.535084 
M68.264099,58.972935 
	C72.291611,56.459286 76.319130,53.945633 81.379829,50.787148 
	C75.090485,47.292965 69.888504,44.402893 64.686523,41.512821 
	C64.325546,42.125603 63.964573,42.738384 63.603596,43.351170 
	C67.510818,45.819584 71.418037,48.287998 75.779182,51.043182 
	C71.249458,53.870117 67.413101,56.264336 63.576740,58.658554 
	C63.803547,59.144417 64.030350,59.630283 64.257156,60.116146 
	C65.335350,59.759750 66.413536,59.403355 68.264099,58.972935 
z"/>
<path fill="#000000" opacity="1.000000" stroke="none" 
	d="
M59.004471,34.932411 
	C53.892670,47.714085 48.817780,60.096741 43.742893,72.479401 
	C42.980404,72.154335 42.217911,71.829269 41.455421,71.504204 
	C47.042122,57.538727 52.628822,43.573257 58.215523,29.607784 
	C58.847752,29.821955 59.479980,30.036123 60.112209,30.250294 
	C59.755264,31.677994 59.398323,33.105690 59.004471,34.932411 
z"/>
<path fill="#000000" opacity="1.000000" stroke="none" 
	d="
M37.601570,59.749786 
	C32.058853,57.303822 26.836666,54.643150 20.122070,51.222107 
	C26.806993,47.394066 32.027401,44.404659 37.247810,41.415257 
	C37.640404,42.040268 38.032993,42.665279 38.425587,43.290291 
	C34.566498,45.743736 30.707409,48.197186 26.759626,50.707016 
	C30.667631,53.797741 34.294868,56.666412 37.601570,59.749786 
z"/>
<path fill="#000000" opacity="1.000000" stroke="none" 
	d="
M67.877914,59.009949 
	C66.413536,59.403355 65.335350,59.759750 64.257156,60.116146 
	C64.030350,59.630283 63.803547,59.144417 63.576740,58.658554 
	C67.413101,56.264336 71.249458,53.870117 75.779182,51.043182 
	C71.418037,48.287998 67.510818,45.819584 63.603596,43.351170 
	C63.964573,42.738384 64.325546,42.125603 64.686523,41.512821 
	C69.888504,44.402893 75.090485,47.292965 81.379829,50.787148 
	C76.319130,53.945633 72.291611,56.459286 67.877914,59.009949 
z"/>
</svg>